<svg width="41" height="40" viewBox="0 0 41 40" fill="none" xmlns="http://www.w3.org/2000/svg">
<path d="M34.1035 9.58031C34.5183 8.15429 36.0245 7.3482 37.4411 7.79417C38.8178 8.22759 39.5938 9.6837 39.1858 11.0682L33.6674 29.7974L28.5653 28.6216L34.1035 9.58031Z" fill="#0D0D0D"/>
<path d="M33.1829 10.6319L38.6207 12.1966L33.4415 29.7694L27.9621 28.5014L33.1829 10.6319Z" fill="#AAFF00" stroke="#0D0D0D" stroke-width="0.4" stroke-linejoin="round"/>
<path d="M34.0781 9.36331L25.1945 39.3267L21.9322 34.2074L16.7628 36.4659L13.8518 31.8986L8.73235 34.2074L5.57031 29.5397L0.200012 31.8986L9.33449 2.53749C9.86316 1.13221 11.2417 0.00788397 15.4577 1.13216L37.24 7.6203C37.3103 7.63841 37.3799 7.65916 37.4486 7.68244L37.24 7.6203C36.0717 7.31944 34.7023 7.74517 34.0781 9.36331Z" fill="white"/>
<path d="M38.9969 10.9192C39.6646 9.40387 38.7159 8.11204 37.4486 7.68244M37.4486 7.68244C36.2393 7.2725 34.7398 7.64774 34.0781 9.36331L25.1945 39.3267L21.9322 34.2074L16.7628 36.4659L13.8518 31.8986L8.73235 34.2074L5.57031 29.5397L0.200012 31.8986L9.33449 2.53749C9.86316 1.13221 11.2417 0.00788397 15.4577 1.13216L37.4486 7.68244Z" stroke="#0D0D0D" stroke-width="0.4" stroke-linecap="round" stroke-linejoin="round"/>
<path d="M8.2303 16.5907L27.2021 22.2119M7.27676 19.2507L26.1482 24.872" stroke="#0D0D0D" stroke-width="0.4" stroke-linecap="round" stroke-linejoin="round"/>
<path fill-rule="evenodd" clip-rule="evenodd" d="M2.35454 24.9738L0.200008 31.8992L5.57031 29.5402L8.73235 34.2079L13.8518 31.8992L16.7628 36.4664L21.9322 34.2079L25.1945 39.3273L27.1581 32.7043L2.35454 24.9738ZM36.7195 7.53706C36.8953 7.54861 37.0698 7.57702 37.24 7.62084L37.4486 7.68299C37.3799 7.6597 37.3103 7.63895 37.24 7.62084L36.7398 7.47188L36.7195 7.53706Z" fill="#FFCB45"/>
<path d="M0.200008 31.8992L0.00903687 31.8397C-0.0142395 31.9146 0.00831771 31.9961 0.066744 32.0483C0.12517 32.1005 0.208703 32.1138 0.280442 32.0823L0.200008 31.8992ZM2.35454 24.9738L2.41405 24.7829C2.36339 24.7671 2.30854 24.7721 2.26156 24.7967C2.21458 24.8214 2.17933 24.8637 2.16357 24.9144L2.35454 24.9738ZM5.57031 29.5402L5.73589 29.4281C5.68175 29.3481 5.57826 29.3183 5.48988 29.3571L5.57031 29.5402ZM8.73235 34.2079L8.56677 34.3201C8.62132 34.4006 8.7259 34.4302 8.81457 34.3902L8.73235 34.2079ZM13.8518 31.8992L14.0205 31.7917C13.9671 31.7078 13.8602 31.676 13.7696 31.7168L13.8518 31.8992ZM16.7628 36.4664L16.5941 36.5739C16.647 36.657 16.7526 36.6891 16.8428 36.6497L16.7628 36.4664ZM21.9322 34.2079L22.1009 34.1004C22.048 34.0173 21.9424 33.9852 21.8522 34.0246L21.9322 34.2079ZM25.1945 39.3273L25.0259 39.4347C25.068 39.5008 25.1448 39.5362 25.2224 39.5253C25.2999 39.5144 25.364 39.4592 25.3863 39.3841L25.1945 39.3273ZM27.1581 32.7043L27.3499 32.7611C27.381 32.6563 27.322 32.5459 27.2176 32.5134L27.1581 32.7043ZM36.7195 7.53706L36.5286 7.47755C36.5104 7.53606 36.52 7.59971 36.5546 7.65024C36.5893 7.70077 36.6453 7.73261 36.7064 7.73663L36.7195 7.53706ZM37.4486 7.68299L37.3915 7.87466C37.496 7.90578 37.6061 7.84751 37.6392 7.74365C37.6722 7.63978 37.616 7.52857 37.5128 7.49357L37.4486 7.68299ZM36.7398 7.47188L36.7969 7.2802C36.692 7.24895 36.5815 7.30786 36.5489 7.41237L36.7398 7.47188ZM38.8138 10.839C38.7693 10.9401 38.8151 11.0582 38.9162 11.1027C39.0173 11.1473 39.1353 11.1014 39.1799 11.0003L38.8138 10.839ZM37.5128 7.49357C37.4082 7.45811 37.2946 7.51417 37.2592 7.61878C37.2237 7.72339 37.2798 7.83694 37.3844 7.8724L37.5128 7.49357ZM0.39098 31.9586L2.54551 25.0332L2.16357 24.9144L0.00903687 31.8397L0.39098 31.9586ZM5.48988 29.3571L0.119575 31.716L0.280442 32.0823L5.65074 29.7233L5.48988 29.3571ZM8.89793 34.0957L5.73589 29.4281L5.40473 29.6524L8.56677 34.3201L8.89793 34.0957ZM13.7696 31.7168L8.65013 34.0256L8.81457 34.3902L13.9341 32.0815L13.7696 31.7168ZM16.9314 36.3589L14.0205 31.7917L13.6832 32.0066L16.5941 36.5739L16.9314 36.3589ZM21.8522 34.0246L16.6827 36.2832L16.8428 36.6497L22.0123 34.3912L21.8522 34.0246ZM25.3632 39.2198L22.1009 34.1004L21.7636 34.3154L25.0259 39.4347L25.3632 39.2198ZM26.9664 32.6474L25.0028 39.2704L25.3863 39.3841L27.3499 32.7611L26.9664 32.6474ZM27.2176 32.5134L2.41405 24.7829L2.29503 25.1647L27.0986 32.8952L27.2176 32.5134ZM37.2898 7.42716C37.1079 7.38032 36.9212 7.34988 36.7327 7.33749L36.7064 7.73663C36.8695 7.74734 37.0316 7.77371 37.1901 7.81452L37.2898 7.42716ZM37.5057 7.49131L37.297 7.42916L37.1829 7.81252L37.3915 7.87466L37.5057 7.49131ZM37.1901 7.81452C37.2556 7.83139 37.3204 7.85071 37.3844 7.8724L37.5128 7.49357C37.4394 7.4687 37.365 7.44652 37.2898 7.42716L37.1901 7.81452ZM36.6828 7.66356L37.1829 7.81252L37.297 7.42916L36.7969 7.2802L36.6828 7.66356ZM36.5489 7.41237L36.5286 7.47755L36.9105 7.59656L36.9308 7.53139L36.5489 7.41237ZM39.1799 11.0003C39.5388 10.1859 39.4658 9.41855 39.1235 8.79764C38.7842 8.18238 38.1874 7.72226 37.5128 7.49357L37.3844 7.8724C37.977 8.0733 38.4882 8.47389 38.7732 8.99077C39.0551 9.50199 39.1226 10.1382 38.8138 10.839L39.1799 11.0003Z" fill="#0D0D0D"/>
<path d="M19.9474 17.3822C19.7382 17.3142 19.5637 17.246 19.4241 17.1775C19.2863 17.1096 19.1814 17.0313 19.1092 16.9427C19.0384 16.8566 18.9977 16.7519 18.9873 16.6286C18.9769 16.5054 18.995 16.3557 19.0418 16.1795C19.0664 16.0908 19.0969 15.9871 19.1333 15.8686C19.1716 15.7506 19.2131 15.6264 19.2576 15.4957C19.3022 15.3651 19.3477 15.2348 19.3941 15.1048C19.4425 14.9754 19.488 14.8545 19.5308 14.7423C19.5742 14.6281 19.6121 14.531 19.6444 14.4511C19.7443 14.2018 19.8697 14.0196 20.0206 13.9046C20.1741 13.7884 20.3599 13.731 20.5781 13.7325C20.797 13.7321 21.0566 13.7807 21.3572 13.8784C21.5284 13.934 21.6911 14.0058 21.8455 14.0938C22.0024 14.1805 22.1369 14.281 22.2491 14.3953C22.3613 14.5095 22.4388 14.6367 22.4816 14.7768C22.5263 14.9175 22.5221 15.0696 22.4689 15.2332C22.4275 15.3607 22.3666 15.4607 22.2862 15.5335C22.2083 15.6049 22.1243 15.6564 22.0341 15.6881C21.9458 15.7204 21.863 15.7387 21.7859 15.7431C21.7088 15.7475 21.644 15.7496 21.5915 15.7493C21.539 15.7491 21.5106 15.7556 21.5062 15.769C21.5025 15.7804 21.5331 15.8029 21.5978 15.8366C21.6626 15.8702 21.7404 15.9187 21.8314 15.9819C21.9553 16.0663 22.0569 16.1582 22.1361 16.2575C22.2172 16.3575 22.2692 16.4658 22.2923 16.5827C22.3153 16.6995 22.3049 16.8255 22.261 16.9605C22.2177 17.0937 22.1402 17.2094 22.0283 17.3076C21.919 17.4046 21.8032 17.4763 21.6808 17.5228C21.585 17.5589 21.4694 17.5813 21.3341 17.5899C21.2007 17.5991 21.0556 17.5961 20.8986 17.5809C20.7429 17.5681 20.5837 17.5437 20.4208 17.5077C20.2593 17.4741 20.1015 17.4323 19.9474 17.3822ZM20.0906 16.8736C20.2884 16.9378 20.4732 16.9842 20.6448 17.0126C20.817 17.0391 20.9707 17.0449 21.106 17.03C21.2431 17.0157 21.357 16.9791 21.4476 16.9202C21.5402 16.8619 21.6037 16.7795 21.6383 16.673C21.6692 16.5779 21.6575 16.4879 21.6031 16.4029C21.5506 16.3186 21.4703 16.2388 21.3622 16.1638C21.2541 16.0887 21.1315 16.0194 20.9944 15.9559C20.8573 15.8925 20.7181 15.8357 20.5766 15.7855C20.4377 15.7341 20.3122 15.6901 20.1999 15.6537C20.1657 15.6425 20.1318 15.6399 20.0984 15.6459C20.0668 15.6524 20.0344 15.6714 20.0011 15.7026C19.9697 15.7345 19.9372 15.7828 19.9035 15.8475C19.8718 15.9129 19.8386 15.9989 19.804 16.1054C19.7656 16.2233 19.7386 16.3228 19.7227 16.4039C19.7069 16.485 19.7074 16.5546 19.7243 16.6126C19.7418 16.6688 19.7795 16.7178 19.8374 16.7598C19.8959 16.7998 19.9803 16.8377 20.0906 16.8736ZM20.2342 15.1695C20.3826 15.2178 20.5163 15.2591 20.6355 15.2936C20.7553 15.3262 20.8668 15.352 20.97 15.3708C21.0733 15.3896 21.1727 15.4009 21.2682 15.4046C21.4194 15.4116 21.547 15.3911 21.651 15.3428C21.7575 15.2933 21.8346 15.1953 21.8822 15.0489C21.9094 14.9652 21.9075 14.8836 21.8765 14.8042C21.8462 14.7228 21.795 14.6473 21.723 14.5776C21.6535 14.5067 21.5708 14.4441 21.4749 14.3898C21.379 14.3355 21.2797 14.2916 21.177 14.2583C21.0819 14.2274 20.9884 14.2075 20.8966 14.1987C20.8049 14.1899 20.7211 14.1953 20.6454 14.2149C20.5721 14.2331 20.5132 14.2655 20.4687 14.312C20.4461 14.3362 20.4204 14.3731 20.3917 14.4227C20.3655 14.4709 20.3378 14.524 20.3085 14.5817C20.2811 14.6401 20.2556 14.6991 20.232 14.7588C20.211 14.8171 20.193 14.8691 20.1782 14.9148C20.156 14.9832 20.1472 15.0393 20.152 15.0829C20.1592 15.1252 20.1867 15.1541 20.2342 15.1695ZM22.9789 18.2789C22.8895 18.2498 22.824 18.2086 22.7825 18.1551C22.7423 18.1042 22.724 18.0373 22.7278 17.9544C22.7323 17.8696 22.7536 17.7683 22.7919 17.6503C22.813 17.5857 22.8393 17.508 22.8708 17.4173C22.9043 17.3273 22.9412 17.2299 22.9815 17.1252C23.0224 17.0187 23.0646 16.9114 23.1081 16.8036C23.1515 16.6957 23.1944 16.593 23.2367 16.4952C23.2795 16.3956 23.319 16.3065 23.3551 16.2278C23.3912 16.1491 23.422 16.0865 23.4476 16.0402C23.5246 15.9327 23.6098 15.8615 23.7031 15.8267C23.7983 15.7924 23.903 15.7938 24.0172 15.8309C24.1256 15.8661 24.1912 15.9327 24.2141 16.0305C24.237 16.1284 24.2234 16.2544 24.1733 16.4084C24.1548 16.4655 24.1279 16.5419 24.0925 16.6377C24.0572 16.7335 24.0166 16.8391 23.9707 16.9545C23.9247 17.07 23.8769 17.188 23.8272 17.3085C23.7795 17.4297 23.7304 17.5452 23.68 17.655C23.6321 17.7635 23.5882 17.8597 23.5484 17.9434C23.5092 18.0253 23.4748 18.0857 23.4454 18.1245C23.374 18.2148 23.3004 18.2698 23.2247 18.2893C23.1502 18.3114 23.0683 18.3079 22.9789 18.2789ZM24.1352 15.3803C23.9564 15.3222 23.8436 15.2519 23.7968 15.1694C23.75 15.0869 23.7389 15.0076 23.7637 14.9316C23.7952 14.8345 23.8566 14.7651 23.948 14.7233C24.04 14.6796 24.143 14.6573 24.2568 14.6565C24.3706 14.6556 24.4789 14.6719 24.5816 14.7052C24.6558 14.7294 24.7203 14.764 24.775 14.8091C24.8297 14.8542 24.8668 14.9083 24.8863 14.9714C24.9076 15.0351 24.9047 15.1088 24.8775 15.1925C24.8479 15.2838 24.7952 15.3487 24.7196 15.3873C24.644 15.4258 24.5553 15.4432 24.4534 15.4396C24.3516 15.4359 24.2455 15.4162 24.1352 15.3803ZM25.3514 19.1318C25.165 19.0712 25.0268 18.9821 24.9367 18.8645C24.8479 18.7495 24.8037 18.5911 24.8041 18.3893C24.8044 18.1875 24.8445 17.9282 24.9243 17.6114C24.9402 17.5303 24.9638 17.4318 24.9951 17.3158C25.029 17.1985 25.0667 17.073 25.108 16.9393C25.1519 16.8042 25.1958 16.6723 25.2397 16.5436C25.2843 16.413 25.3254 16.2928 25.3632 16.1831C25.4035 16.0721 25.4376 15.9833 25.4655 15.9167C25.5306 15.7359 25.5917 15.5897 25.6491 15.4779C25.7089 15.3649 25.7741 15.2872 25.8446 15.245C25.9171 15.2033 26.0008 15.1979 26.0959 15.2288C26.2158 15.2678 26.2865 15.3317 26.308 15.4207C26.3302 15.5079 26.3134 15.637 26.2578 15.8082C26.2399 15.8634 26.2148 15.9341 26.1826 16.0203C26.1503 16.1066 26.1141 16.2021 26.0738 16.3067C26.0334 16.4114 25.9909 16.5195 25.9462 16.6312C25.9041 16.7416 25.8622 16.851 25.8207 16.9595C25.781 17.0685 25.7441 17.1691 25.7101 17.261C25.676 17.353 25.6481 17.4323 25.6265 17.4989C25.5529 17.7252 25.4996 17.9119 25.4666 18.0589C25.4361 18.2046 25.4224 18.321 25.4256 18.4083C25.4294 18.4936 25.4464 18.558 25.4764 18.6014C25.509 18.6436 25.5519 18.6733 25.6052 18.6906C25.6774 18.7141 25.7417 18.7202 25.7979 18.7091C25.8566 18.6966 25.9103 18.6835 25.9589 18.6699C26.0081 18.6543 26.0536 18.6534 26.0955 18.6669C26.1411 18.6818 26.1711 18.7094 26.1853 18.7498C26.2014 18.7907 26.2011 18.8369 26.1844 18.8883C26.1647 18.9491 26.1265 19.0019 26.0699 19.0466C26.0139 19.0894 25.9468 19.1212 25.8685 19.1421C25.7916 19.1654 25.7082 19.1762 25.6183 19.1743C25.5279 19.1744 25.4389 19.1602 25.3514 19.1318ZM27.5422 19.8436C27.3558 19.783 27.2175 19.694 27.1275 19.5764C27.0387 19.4613 26.9945 19.3029 26.9948 19.1011C26.9952 18.8994 27.0353 18.6401 27.1151 18.3232C27.1309 18.2421 27.1545 18.1436 27.1859 18.0276C27.2198 17.9104 27.2574 17.7848 27.2988 17.6511C27.3427 17.516 27.3866 17.3841 27.4305 17.2554C27.4751 17.1248 27.5162 17.0046 27.554 16.8949C27.5942 16.7839 27.6283 16.6951 27.6563 16.6285C27.7213 16.4478 27.7825 16.3015 27.8399 16.1898C27.8997 16.0767 27.9649 15.9991 28.0354 15.9568C28.1078 15.9151 28.1916 15.9097 28.2867 15.9406C28.4065 15.9796 28.4772 16.0436 28.4988 16.1326C28.5209 16.2197 28.5042 16.3488 28.4486 16.52C28.4307 16.5752 28.4056 16.6459 28.3734 16.7322C28.3411 16.8184 28.3048 16.9139 28.2645 17.0185C28.2242 17.1232 28.1817 17.2314 28.137 17.343C28.0948 17.4534 28.053 17.5628 28.0114 17.6713C27.9718 17.7804 27.9349 17.8809 27.9008 17.9729C27.8667 18.0648 27.8389 18.1441 27.8173 18.2107C27.7437 18.437 27.6904 18.6237 27.6574 18.7707C27.6269 18.9164 27.6132 19.0329 27.6164 19.1201C27.6202 19.2055 27.6371 19.2699 27.6672 19.3133C27.6998 19.3554 27.7427 19.3851 27.7959 19.4024C27.8682 19.4259 27.9325 19.4321 27.9887 19.4209C28.0474 19.4084 28.1011 19.3954 28.1497 19.3817C28.1989 19.3662 28.2444 19.3652 28.2862 19.3788C28.3319 19.3936 28.3618 19.4212 28.376 19.4616C28.3922 19.5026 28.3919 19.5487 28.3752 19.6001C28.3554 19.661 28.3172 19.7137 28.2607 19.7585C28.2047 19.8013 28.1376 19.8331 28.0593 19.8539C27.9823 19.8773 27.8989 19.888 27.8091 19.8862C27.7187 19.8862 27.6297 19.872 27.5422 19.8436Z" fill="#0D0D0D"/>
<g clip-path="url(#clip0_192_1272)">
<path d="M9.90865 7.60051L10.202 6.69753C10.2799 6.45805 10.4496 6.25928 10.674 6.14497C10.8983 6.03065 11.1589 6.01014 11.3984 6.08795L12.3014 6.38135" stroke="black" stroke-width="0.7" stroke-linecap="round" stroke-linejoin="round"/>
<path d="M16.8163 7.84833L17.7193 8.14172C17.9588 8.21954 18.1575 8.3893 18.2718 8.61366C18.3862 8.83803 18.4067 9.09861 18.3289 9.3381L18.0355 10.2411" stroke="black" stroke-width="0.7" stroke-linecap="round" stroke-linejoin="round"/>
<path d="M16.5685 14.756L16.2751 15.659C16.1973 15.8984 16.0275 16.0972 15.8031 16.2115C15.5788 16.3258 15.3182 16.3464 15.0787 16.2685L14.1757 15.9751" stroke="black" stroke-width="0.7" stroke-linecap="round" stroke-linejoin="round"/>
<path d="M9.66084 14.5082L8.75786 14.2148C8.51837 14.137 8.31961 13.9672 8.20529 13.7428C8.09097 13.5185 8.07046 13.2579 8.14827 13.0184L8.44167 12.1154" stroke="black" stroke-width="0.7" stroke-linecap="round" stroke-linejoin="round"/>
<path d="M11.5679 8.63881L15.1798 9.81239" stroke="black" stroke-width="0.7" stroke-linecap="round" stroke-linejoin="round"/>
<path d="M10.9811 10.4448L15.496 11.9117" stroke="black" stroke-width="0.7" stroke-linecap="round" stroke-linejoin="round"/>
<path d="M10.3943 12.2507L13.1033 13.1309" stroke="black" stroke-width="0.7" stroke-linecap="round" stroke-linejoin="round"/>
</g>
<defs>
<clipPath id="clip0_192_1272">
<rect width="11.3934" height="11.3934" fill="white" transform="translate(9.58106 4) rotate(18)"/>
</clipPath>
</defs>
</svg>
